# xmcd
#
# Track frame offsets:
#	150
#	22963
#	40564
#	65661
#	86113
#	108092
#	133250
#	141421
#	164966
#	185756
#	207102
#	227063
#	243717
#	253252
#
# Disc length: 3678 seconds
#
# Revision: 1
# Processed by: cddbd v1.5.2PL0 Copyright (c) Steve Scherf et al.
# Submitted via: audiograbber 1.83.01
#
DISCID=d40e5c0e
DTITLE=Jim Cuddy - Skyscraper Soul
DYEAR=2012
DGENRE=Country
TTITLE0=Skyscraper Soul
TTITLE1=Regular Days
TTITLE2=Everyone Watched The Wedding
TTITLE3=Still Want You
TTITLE4=Wash Me Down
TTITLE5=Watch Yourself Go Down
TTITLE6=Don´t Know That Much
TTITLE7=Banks Of The 49
TTITLE8=What Is So Wrong
TTITLE9=Ready To Fall
TTITLE10=Water´s Running High
TTITLE11=How In The World
TTITLE12=City Birds
TTITLE13=With You
EXTD=
EXTT0=
EXTT1=
EXTT2=
EXTT3=
EXTT4=
EXTT5=
EXTT6=
EXTT7=
EXTT8=
EXTT9=
EXTT10=
EXTT11=
EXTT12=
EXTT13=
PLAYORDER=
